<svg width="170" height="44" fill="none" xmlns="http://www.w3.org/2000/svg"><path fill-rule="evenodd" clip-rule="evenodd" d="M70.98 30.28v-3.59c.44 0 .798-.125 1.074-.343.277-.233.423-.497.423-.792v-4.042c0-.109-.032-.187-.13-.233-.081-.031-.195-.016-.325.062l-.57.358c-.163.093-.326.202-.472.295v-4.026c.114-.032.228-.078.341-.11l.83-.295c.228-.077.326-.248.326-.497 0-.45-.196-.746-.603-.917a2.997 2.997 0 0 0-.895-.218v-3.498c2.409.032 4.085.575 5.029 1.648.65.762.992 1.881.992 3.358v11.752c0 .342-.032.575-.097.7-.163.28-.456.419-.895.419h-2.8c-.422 0-.634-.17-.634-.513 0-.14-.081-.218-.26-.218-.146.063-.26.11-.293.156-.26.217-.602.404-1.04.544zm13.197-8.907v8.052c0 .373-.081.622-.26.73-.163.093-.39.156-.667.156h-2.67c-.39 0-.65-.078-.764-.234a1.301 1.301 0 0 1-.163-.653V13.57c0-.373.082-.622.244-.73.163-.093.391-.155.684-.155h2.994c.39 0 .602.155.602.45v.342c0 .093.049.171.163.264l.472-.295c.455-.342.846-.575 1.139-.7.504-.202 1.139-.31 1.871-.31.326 0 .586.046.749.139.163.093.244.295.244.622v3.078c0 .248-.081.42-.244.497a1.08 1.08 0 0 1-.554.14H87.4c-.537 0-.96.062-1.269.186-.309.125-.618.342-.927.638-.489.466-.781.964-.88 1.523-.097.545-.145 1.26-.145 2.115zm7.29-11.907l3.288-1.027h.326c.26 0 .406.171.406.529v3.56c0 .28.13.42.423.42h1.302c.276 0 .504.046.683.155.163.108.245.342.245.73v1.492c0 .373-.082.622-.245.731-.179.093-.407.155-.683.155h-1.367c-.244 0-.358.11-.358.342v8.612c0 .622.081 1.057.277 1.306.178.248.57.373 1.139.373.244 0 .439-.016.57-.047a1.88 1.88 0 0 1 .439-.047c.26 0 .39.156.39.483v2.409c0 .342-.146.575-.439.715-.277.14-.895.202-1.855.202-1.79 0-3.076-.31-3.873-.933-.781-.621-1.172-1.693-1.172-3.186v-9.824c0-.17-.049-.264-.13-.311a1.01 1.01 0 0 0-.309-.093h-.521c-.244 0-.423-.062-.52-.156-.114-.109-.163-.357-.163-.73v-1.493c0-.388.049-.622.162-.73.098-.109.277-.155.521-.155h.667c.195-.078.293-.218.293-.42v-2.394c0-.342.163-.56.505-.668zm-29.08-.622v2.922c0 .171-.016.296-.064.405-.05.093-.163.14-.342.14a39.101 39.101 0 0 0-1.562-.312 8.967 8.967 0 0 0-1.48-.14c-1.514 0-2.49.451-2.963 1.368-.292.576-.423 1.602-.423 3.078v5.363c0 1.803.245 3.016.733 3.607.504.606 1.464.917 2.88.917.797 0 1.334-.078 1.627-.218.293-.14.765-.202 1.432-.202.325 0 .488.186.488.575v2.814c0 .497-.26.84-.813 1.072-.538.218-1.79.327-3.727.327-3.06 0-5.175-.778-6.346-2.347-.798-1.073-1.188-2.72-1.188-4.897V14.3c0-1.881.455-3.327 1.383-4.337 1.27-1.399 3.401-2.098 6.412-2.098 1.66 0 2.798.108 3.384.31.375.14.57.358.57.669zm8.593 3.59v3.498a3.993 3.993 0 0 0-.618-.046c-.618 0-1.107.03-1.432.093-.375.109-.7.202-.977.264a4.183 4.183 0 0 0-.65.187c-.424.155-.684.217-.798.217-.423 0-.635-.186-.635-.56v-1.974c0-.404.245-.746.732-1.01.814-.45 2.197-.668 4.15-.668h.228zm0 5.535v4.026c-.407.295-.716.575-.927.84-.375.512-.554 1.134-.554 1.927 0 .544.114 1.01.358 1.368.244.373.618.56 1.09.56h.033v3.59a.603.603 0 0 1-.179.063c-.52.14-1.025.218-1.514.218-1.269 0-2.327-.435-3.14-1.337-.912-.98-1.367-2.394-1.367-4.213 0-2.145.732-3.824 2.197-5.02.813-.67 2.148-1.338 4.003-2.022z" fill="#E85140"/><path fill-rule="evenodd" clip-rule="evenodd" d="M141.491 30.28v-3.59c.423 0 .781-.125 1.057-.343.293-.233.439-.497.439-.792v-4.042a.252.252 0 0 0-.13-.233c-.097-.031-.211-.016-.341.062l-.57.358c-.163.093-.309.202-.455.295v-4.026c.113-.032.211-.078.325-.11l.83-.295c.228-.077.341-.248.341-.497 0-.45-.211-.746-.618-.917a3.012 3.012 0 0 0-.878-.218v-3.498c2.392.032 4.068.575 5.012 1.648.667.762.992 1.881.992 3.358v11.752c0 .342-.033.575-.097.7-.147.28-.456.419-.895.419h-2.783c-.423 0-.635-.17-.635-.513 0-.14-.097-.218-.26-.218-.162.063-.26.11-.309.156-.244.217-.586.404-1.025.544zm13.181-8.907v8.052c0 .373-.082.622-.245.73-.163.093-.39.156-.683.156h-2.653c-.407 0-.65-.078-.764-.234-.114-.17-.163-.388-.163-.653V13.57c0-.373.081-.622.244-.73.163-.093.391-.155.667-.155h3.011c.39 0 .586.155.586.45v.342c0 .093.065.171.163.264l.472-.295c.471-.342.846-.575 1.138-.7.521-.202 1.139-.31 1.872-.31.342 0 .586.046.765.139.162.093.244.295.244.622v3.078c0 .248-.082.42-.244.497-.179.093-.359.14-.554.14h-.634c-.538 0-.944.062-1.254.186-.325.125-.634.342-.944.638-.487.466-.78.964-.878 1.523-.098.545-.146 1.26-.146 2.115zm7.306-11.907l3.287-1.027h.342c.26 0 .391.171.391.529v3.56c0 .28.146.42.439.42h1.285c.293 0 .521.046.684.155.163.108.244.342.244.73v1.492c0 .373-.081.622-.244.731-.163.093-.391.155-.684.155h-1.366c-.245 0-.358.11-.358.342v8.612c0 .622.097 1.057.276 1.306.196.248.57.373 1.155.373.245 0 .423-.016.554-.047.146-.03.277-.047.439-.047.26 0 .391.156.391.483v2.409c0 .342-.13.575-.423.715s-.912.202-1.856.202c-1.806 0-3.092-.31-3.873-.933-.781-.621-1.187-1.693-1.187-3.186v-9.824c0-.17-.033-.264-.131-.311a.796.796 0 0 0-.293-.093h-.537c-.244 0-.423-.062-.52-.156-.114-.109-.179-.357-.179-.73v-1.493c0-.388.065-.622.179-.73.097-.109.276-.155.52-.155h.667c.196-.078.294-.218.294-.42v-2.394c0-.342.179-.56.504-.668zm-29.096-.622v2.922c0 .171-.016.296-.065.405-.033.093-.147.14-.326.14a39.76 39.76 0 0 0-1.578-.312 8.816 8.816 0 0 0-1.481-.14c-1.497 0-2.49.451-2.946 1.368-.293.576-.439 1.602-.439 3.078v5.363c0 1.803.244 3.016.749 3.607.504.606 1.448.917 2.864.917.797 0 1.351-.078 1.627-.218.293-.14.765-.202 1.432-.202.342 0 .504.186.504.575v2.814c0 .497-.276.84-.813 1.072-.554.218-1.79.327-3.743.327-3.059 0-5.159-.778-6.346-2.347-.798-1.073-1.188-2.72-1.188-4.897V14.3c0-1.881.471-3.327 1.399-4.337 1.254-1.399 3.401-2.098 6.412-2.098 1.66 0 2.782.108 3.385.31.374.14.553.358.553.669zm8.609 3.59v3.498a4.074 4.074 0 0 0-.635-.046c-.618 0-1.091.03-1.432.093-.374.109-.7.202-.977.264a4.783 4.783 0 0 0-.65.187c-.407.155-.684.217-.798.217-.407 0-.618-.186-.618-.56v-1.974c0-.404.244-.746.733-1.01.813-.45 2.196-.668 4.149-.668h.228zm0 5.535v4.026c-.424.295-.733.575-.928.84-.374.512-.57 1.134-.57 1.927 0 .544.131 1.01.375 1.368.244.373.602.56 1.09.56h.033v3.59a.826.826 0 0 1-.179.063 5.848 5.848 0 0 1-1.513.218c-1.286 0-2.344-.435-3.157-1.337-.912-.98-1.367-2.394-1.367-4.213 0-2.145.732-3.824 2.196-5.02.814-.67 2.148-1.338 4.02-2.022z" fill="#F58D37"/><path fill-rule="evenodd" clip-rule="evenodd" d="M132.882 8.844v2.922c0 .171-.016.296-.065.405-.033.093-.147.14-.326.14a39.76 39.76 0 0 0-1.578-.312 8.816 8.816 0 0 0-1.481-.14c-1.497 0-2.49.451-2.946 1.368-.293.576-.439 1.602-.439 3.078v5.363c0 1.803.244 3.016.749 3.607.504.606 1.448.917 2.864.917.797 0 1.351-.078 1.627-.218.293-.14.765-.202 1.432-.202.342 0 .504.186.504.575v2.814c0 .497-.276.84-.813 1.072-.554.218-1.79.327-3.743.327-3.059 0-5.159-.778-6.346-2.347-.798-1.073-1.188-2.72-1.188-4.897V14.3c0-1.881.471-3.327 1.399-4.337 1.254-1.399 3.401-2.098 6.412-2.098 1.66 0 2.782.108 3.385.31.374.14.553.358.553.669zm14.613 8.596v11.752c0 .342-.033.575-.097.7-.147.28-.456.419-.895.419h-2.783c-.423 0-.635-.17-.635-.513 0-.14-.097-.218-.26-.218-.162.063-.26.11-.309.156-.276.248-.684.45-1.204.606a5.848 5.848 0 0 1-1.513.218c-1.286 0-2.344-.435-3.157-1.337-.912-.98-1.367-2.394-1.367-4.213 0-2.145.732-3.824 2.196-5.02.863-.7 2.311-1.415 4.345-2.13l.83-.296c.228-.078.342-.248.342-.497 0-.451-.212-.746-.618-.917-.407-.171-.912-.265-1.514-.265-.618 0-1.09.031-1.432.093-.374.11-.7.202-.976.265a4.805 4.805 0 0 0-.651.186c-.407.156-.683.218-.797.218-.407 0-.619-.186-.619-.56v-1.974c0-.404.245-.746.733-1.01.813-.451 2.197-.669 4.149-.669 2.523 0 4.264.544 5.24 1.648.667.762.992 1.881.992 3.358zm-4.508 8.115v-4.042a.252.252 0 0 0-.13-.233c-.097-.031-.211-.016-.341.062l-.57.358c-.651.404-1.122.777-1.383 1.135-.374.513-.57 1.134-.57 1.927 0 .544.13 1.01.374 1.368.245.373.603.56 1.091.56.439 0 .814-.109 1.09-.342.293-.234.439-.498.439-.793zm11.685-4.182v8.052c0 .373-.082.622-.245.73-.163.093-.39.156-.683.156h-2.653c-.407 0-.65-.078-.764-.234-.114-.17-.163-.388-.163-.653V13.57c0-.373.081-.622.244-.73.163-.093.391-.155.667-.155h3.011c.39 0 .586.155.586.45v.342c0 .093.065.171.163.264l.472-.295c.471-.342.846-.575 1.138-.7.521-.202 1.139-.31 1.872-.31.342 0 .586.046.765.139.162.093.244.295.244.622v3.078c0 .248-.082.42-.244.497-.179.093-.359.14-.554.14h-.634c-.538 0-.944.062-1.254.186-.325.125-.634.342-.944.638-.487.466-.78.964-.878 1.523-.098.545-.146 1.26-.146 2.115zm7.306-11.907l3.287-1.027h.342c.26 0 .391.171.391.529v3.56c0 .28.146.42.439.42h1.285c.293 0 .521.046.684.155.163.108.244.342.244.73v1.492c0 .373-.081.622-.244.731-.163.093-.391.155-.684.155h-1.366c-.245 0-.358.11-.358.342v8.612c0 .622.097 1.057.276 1.306.196.248.57.373 1.155.373.245 0 .423-.016.554-.047.146-.03.277-.047.439-.047.26 0 .391.156.391.483v2.409c0 .342-.13.575-.423.715s-.912.202-1.856.202c-1.806 0-3.092-.31-3.873-.933-.781-.621-1.187-1.693-1.187-3.186v-9.824c0-.17-.033-.264-.131-.311a.796.796 0 0 0-.293-.093h-.537c-.244 0-.423-.062-.52-.156-.114-.109-.179-.357-.179-.73v-1.493c0-.388.065-.622.179-.73.097-.109.276-.155.52-.155h.667c.196-.078.294-.218.294-.42v-2.394c0-.342.179-.56.504-.668z" fill="#F58D37"/><path d="M116.449 30.56h-13.275c-.63 0-1.028-.11-1.191-.332-.166-.22-.247-.566-.247-1.035v-.313c0-1.77.673-3.684 2.019-5.741.825-1.25 2.026-2.688 3.607-4.316 1.579-1.627 2.493-2.584 2.74-2.871 1.292-1.51 1.937-3.124 1.937-4.843 0-1.12-.19-1.985-.572-2.597-.382-.612-1.009-.918-1.88-.918-.928 0-1.568.351-1.922 1.054-.245.496-.368 1.12-.368 1.875v.899c0 .599-.116.976-.348 1.132-.231.156-.593.235-1.083.235h-2.699c-.491 0-.818-.052-.981-.156-.3-.209-.45-.612-.45-1.211v-1.055c0-2.708.927-4.7 2.78-5.976 1.445-.99 3.216-1.484 5.316-1.484 2.48 0 4.477.749 5.99 2.246 1.513 1.498 2.269 3.457 2.269 5.878 0 2.448-.654 4.414-1.962 5.898l-4.008 3.36c-1.663 1.432-2.753 3.15-3.27 5.155-.056.287.04.43.286.43h7.318c.491 0 .818.052.982.156.3.208.45.612.45 1.211v1.953c0 .599-.117.976-.35 1.132-.233.156-.596.234-1.088.234z" fill="#78B147" stroke="#76B045" stroke-miterlimit="10"/><path fill-rule="evenodd" clip-rule="evenodd" d="M18.294 26.584c4.267.174 8.52.334 12.71.522.41.464.638.987.745 1.567-1.246 4.743-3.478 8.413-7.274 10.4-.486-.405-.972-.812-1.443-1.218-2.414.986-5.117 1.335-8.094 1.074-3.326-.566-5.968-1.814-8.018-3.656-3.22-2.611-4.389-5.353-4.996-8.124-1.048-4.888.045-10.647 4.297-13.867-.44 3.22-.197 6.078.866 8.5-.607.436-1.093.9-1.139 1.364.668 1.175 1.55 2.118 2.552 2.945 2.293 1.871 5.223 2.945 7.775 3.772a8.197 8.197 0 0 0 1.685-.03c.228-.449.274-1.914.334-3.249z" fill="#F58220"/><path fill-rule="evenodd" clip-rule="evenodd" d="M18.294 26.584c4.267.174 8.52.334 12.71.522.35.406.577.856.699 1.35l.046.217c-1.276 4.454-3.6 7.935-7.29 9.82-.486-.39-.972-.797-1.442-1.189-2.415.957-5.118 1.306-8.095 1.06C8.56 37.303 3.275 32.98 1.91 26.844a15.782 15.782 0 0 1-.364-2.93c-.046-4.018 1.35-8.109 4.677-10.633-.152 1.146-.228 2.234-.198 3.279.03 1.857.365 3.54 1.002 5.077-.577.42-1.032.856-1.078 1.29l.03.059c-.014.058-.03.116-.03.16.668 1.174 1.55 2.117 2.552 2.944 2.293 1.871 5.223 2.945 7.775 3.772a8.197 8.197 0 0 0 1.685-.03c.228-.449.274-1.914.334-3.249z" fill="url(#paint0_linear)"/><path fill-rule="evenodd" clip-rule="evenodd" d="M18.385 26.468c4.267.16 8.428.45 12.62.638.349.407.576.856.698 1.35l.046.217-.016.305-.531.116-14.047 1.436-.85-.667c.318.029 1.442.044 1.655-.029.228-.45.365-2.046.425-3.366z" fill="url(#paint1_linear)"/><path fill-rule="evenodd" clip-rule="evenodd" d="M6.024 16.256c0 2.03.35 3.873 1.063 5.527-.607.435-1.093.9-1.139 1.363.668 1.175 1.55 2.118 2.552 2.945 2.05 1.668 4.632 2.684 6.97 3.51 1.093.377 2.369.464 3.508.305l-.107-1.058c4.055.057 8.383.057 12.437.116-.03.028-.014.043-.03.072-1.959 1.915-4.784 3.7-7.896 4.845-3.797 1.378-8.064 1.871-11.617.87-5.558-1.552-7.988-4.67-8.93-8.892-.638-2.843-.79-9.27 3.235-11.605.076-.043-.122 2.031-.046 2.002z" fill="url(#paint2_linear)"/><path fill-rule="evenodd" clip-rule="evenodd" d="M5.796 23.016c4.161 4.004 6.044 3.206 11.86 3.423l1.048 1.654.911 1.9c-.243.102-.942.232-1.2.32-1.883.565-4.206.203-5.937-.508-2.81-1.146-6.697-5.396-6.682-6.79z" fill="url(#paint3_linear)"/><path fill-rule="evenodd" clip-rule="evenodd" d="M9.198 25.743c.197.189.334.536.608.55 2.718.132 5.603.146 8.321.291.107 1.248.046 1.741.016 2.945a3.395 3.395 0 0 1-1.777.29c-2.795-.391-7.031-2.843-7.168-4.076z" fill="url(#paint4_linear)"/><path fill-rule="evenodd" clip-rule="evenodd" d="M18.993 17.402c-.274 4.076-.531 8.123-.82 12.113a3.468 3.468 0 0 1-1.67.667c-4.936-1.291-8.717-3.496-10.707-7.166.426-.45.866-.9 1.291-1.35-.957-2.32-1.275-4.917-.926-7.76.668-3.162 2.035-5.643 4.009-7.558 2.809-3.017 5.694-4.076 8.61-4.598 5.148-.885 11.162.304 14.442 4.438-3.372-.493-6.363-.333-8.914.624-.456-.595-.927-1.059-1.413-1.117a10.967 10.967 0 0 0-3.143 2.364c-2.02 2.148-3.204 4.918-4.13 7.34a7.137 7.137 0 0 0-.016 1.61c.456.233 2.005.306 3.387.393z" fill="#00AEEF"/><path fill-rule="evenodd" clip-rule="evenodd" d="M18.993 17.402c-.274 4.076-.531 8.123-.82 12.113a3.46 3.46 0 0 1-1.443.638l-.228.03c-4.631-1.306-8.215-3.599-10.098-7.167.425-.45.835-.9 1.26-1.349-.941-2.32-1.245-4.903-.91-7.746.652-3.177 1.988-5.658 3.917-7.572 2.749-3.018 5.588-4.077 8.428-4.599a19.939 19.939 0 0 1 3.098-.276c4.206.044 8.458 1.466 11.025 4.715-1.2-.174-2.339-.276-3.432-.276-1.944 0-3.72.261-5.33.841-.425-.565-.866-1-1.337-1.059l-.06.03c-.06-.015-.121-.015-.167-.03a10.965 10.965 0 0 0-3.143 2.365c-2.02 2.147-3.205 4.918-4.131 7.34a7.137 7.137 0 0 0-.015 1.61c.455.232 2.004.305 3.386.392z" fill="url(#paint5_linear)"/><path fill-rule="evenodd" clip-rule="evenodd" d="M18.993 17.402c-.274 4.076-.531 8.123-.82 12.113-.44.333-.927.537-1.443.638l-.228.03-.075-.015-.35-.508-1.169-13.433.714-.798c-.046.305-.091 1.379-.015 1.582.455.231 2.004.304 3.386.391z" fill="url(#paint6_linear)"/><path fill-rule="evenodd" clip-rule="evenodd" d="M30.109 5.928c-2.126-.044-4.07.232-5.801.885-.456-.595-.926-1.06-1.413-1.117a10.965 10.965 0 0 0-3.143 2.364c-1.807 1.93-2.93 4.366-3.842 6.571-.425 1.045-.531 2.263-.41 3.351l1.124-.072c-.167 3.873-.258 7.978-.41 11.85-.03-.028-.061 0-.076-.028-1.959-1.915-3.766-4.642-4.89-7.645-1.366-3.64-1.761-7.746-.652-11.111 1.047-3.119 3.462-5.687 7.82-6.833 4.07-.812 8.109-.029 11.693 1.785z" fill="url(#paint7_linear)"/><path fill-rule="evenodd" clip-rule="evenodd" d="M20.465 7.364c-.258.218-.698.377-.713.696l-.774 9.53-3.6.407c-.926-1.93-.5-4.352.395-6.223 1.26-2.655 3.235-4.468 4.692-4.41z" fill="url(#paint8_linear)"/><path fill-rule="evenodd" clip-rule="evenodd" d="M20.086 8.727c-.197.19-.562.32-.577.58-.213 2.583-.289 5.354-.501 7.936-1.306.072-1.807.203-3.068.145-.167-.377-.395-1.234-.273-1.9.471-2.67 3.128-6.645 4.419-6.76z" fill="#006FB9"/><path fill-rule="evenodd" clip-rule="evenodd" d="M29.06 17.837c-4.251-.247-8.503-.493-12.694-.754a3.099 3.099 0 0 1-.699-1.596c1.336-4.714 3.645-8.34 7.502-10.24.47.405.941.826 1.412 1.232 2.43-.928 5.133-1.233 8.11-.913 3.31.638 5.922 1.943 7.926 3.815 3.174 2.683 4.282 5.44 4.829 8.224.942 4.918-.288 10.648-4.601 13.781.501-3.206.319-6.063-.684-8.5.623-.421 1.11-.87 1.17-1.35-.653-1.175-1.504-2.161-2.49-3.002-2.248-1.915-5.149-3.047-7.685-3.917a7.293 7.293 0 0 0-1.685 0c-.243.42-.304 1.9-.41 3.22z" fill="#A6CE39"/><path fill-rule="evenodd" clip-rule="evenodd" d="M29.06 17.837c-4.251-.247-8.503-.493-12.694-.754a3.378 3.378 0 0 1-.668-1.364l-.03-.232c1.35-4.425 3.75-7.848 7.5-9.66.472.405.942.797 1.413 1.203 2.43-.914 5.133-1.204 8.11-.885 3.31.61 5.922 1.886 7.926 3.728 3.174 2.611 4.282 5.324 4.829 8.037.197.957.288 1.958.304 2.959-.03 3.989-1.519 8.065-4.905 10.517a20.69 20.69 0 0 0 .273-3.279c0-1.842-.288-3.54-.896-5.062.593-.42 1.048-.842 1.109-1.292l-.03-.058c.014-.058.03-.101.03-.16-.653-1.174-1.504-2.16-2.49-3.002-2.248-1.915-5.149-3.046-7.685-3.917a7.298 7.298 0 0 0-1.685 0c-.243.421-.304 1.901-.41 3.221z" fill="url(#paint9_linear)"/><path fill-rule="evenodd" clip-rule="evenodd" d="M29.137 17.837c-4.252-.247-8.58-.493-12.771-.754a3.38 3.38 0 0 1-.668-1.364l-.03-.232.014-.073.532-.319 14.077-1.16.835.667c-.319-.029-1.442.29-1.655.377-.076.45-.213 1.553-.334 2.858z" fill="url(#paint10_linear)"/><path fill-rule="evenodd" clip-rule="evenodd" d="M22.425 6.508c-3.25 1.798-5.088 4.468-6.196 8.21l1.473-1.16c.79-4.178 3.75-6.456 4.723-7.05z" fill="url(#paint11_linear)"/><path fill-rule="evenodd" clip-rule="evenodd" d="M41.118 28.426c.03-2.03-.273-3.872-.957-5.54.623-.421 1.11-.871 1.17-1.35-.653-1.175-1.504-2.162-2.49-3.003-2.005-1.711-4.557-2.785-6.88-3.64-1.093-.407-2.08-.61-3.22-.494l-.197 1.175c-4.054-.145-8.382-.218-12.437-.363.03-.029 0-.058.03-.072 1.99-1.871 4.86-3.598 8.004-4.685 3.811-1.306 8.109-1.712 11.632-.639 3.28.987 5.968 3.293 7.183 7.442.85 3.888.045 7.732-1.838 11.17z" fill="url(#paint12_linear)"/><path fill-rule="evenodd" clip-rule="evenodd" d="M28.195 26.976c.41-4.004.82-8.037 1.245-11.982a3.45 3.45 0 0 1 1.686-.624c4.89 1.45 8.595 3.786 10.448 7.528-.44.435-.88.87-1.336 1.306.88 2.335 1.108 4.932.668 7.76-.774 3.148-2.233 5.585-4.282 7.442-2.916 2.916-5.832 3.888-8.763 4.309-4.738.667-10.128-.436-13.409-3.874.152.03.32.059.486.087 2.916.262 5.558-.072 7.927-1 .32.391.653.667 1.017.71l.046-.014.531.45c3.812-1.988 6.044-5.658 7.29-10.401a3.605 3.605 0 0 0-.168-.61c0-.174-.014-.333-.03-.507a1.495 1.495 0 0 0-.288-.102 5.022 5.022 0 0 0-.258-.348l-2.81-.13z" fill="#ED1C24"/><path fill-rule="evenodd" clip-rule="evenodd" d="M28.195 26.976c.41-4.004.82-8.037 1.245-11.982a3.52 3.52 0 0 1 1.458-.595l.228-.03c4.586 1.451 8.094 3.874 9.856 7.5l-1.321 1.306c.865 2.35 1.078 4.932.638 7.775-.76 3.134-2.187 5.585-4.177 7.427-2.855 2.93-5.725 3.902-8.58 4.323a18.485 18.485 0 0 1-3.113.174c-3.735-.145-7.47-1.407-9.992-4.033.167.03.335.059.502.087 2.854.262 5.436-.058 7.775-.942.304.348.607.594.942.653l.06-.03c.06.015.121.03.167.03l.046-.015.531.45c3.811-1.988 6.044-5.658 7.29-10.401a3.614 3.614 0 0 0-.168-.61c0-.174-.015-.333-.03-.507a1.492 1.492 0 0 0-.288-.102 5.022 5.022 0 0 0-.259-.348l-2.81-.13z" fill="url(#paint13_linear)"/><path fill-rule="evenodd" clip-rule="evenodd" d="M28.195 26.976c.41-4.004.82-8.037 1.245-11.982a3.52 3.52 0 0 1 1.458-.595l.228-.03.076.03.334.507.698 13.462-.577.61.092-.306a3.436 3.436 0 0 0-.744-1.566l-2.81-.13z" fill="url(#paint14_linear)"/><path fill-rule="evenodd" clip-rule="evenodd" d="M22.865 37.928c.091-.044.137-.058.167-.073.137.131.653.566.896.77l.532.449c3.811-1.987 6.043-5.658 7.289-10.4a1.445 1.445 0 0 0-.061-.248c.122-.493.152-1 .106-1.552l-1.215-.217c.304-3.86.532-7.993.835-11.852.03.029.046 0 .076.029 1.883 1.973 3.584 4.758 4.601 7.804 1.246 3.684 1.504 7.79.259 11.112-1.155 3.104-3.645 5.584-8.034 6.6-3.508.566-6.954-.015-10.068-1.393 1.64-.13 3.174-.463 4.617-1.03z" fill="url(#paint15_linear)"/><path fill-rule="evenodd" clip-rule="evenodd" d="M31.172 18.113c.075-1.117.151-2.22.242-3.308.03.029.046 0 .076.029 1.883 1.973 3.584 4.758 4.601 7.804.137.406.259.812.365 1.219-.015.029-.03.072-.046.101-.561-2.132-1.761-4.264-5.238-5.845z" fill="url(#paint16_linear)"/><path d="M53.487 41.2l-.146-.481h-.025c-.167.21-.335.354-.504.431a1.61 1.61 0 0 1-.65.113c-.34 0-.605-.092-.796-.276-.19-.183-.285-.442-.285-.778 0-.356.133-.625.397-.806.265-.181.668-.28 1.21-.297l.596-.019v-.184c0-.22-.052-.385-.156-.494-.102-.11-.261-.165-.478-.165-.177 0-.347.026-.51.078a3.835 3.835 0 0 0-.468.184l-.238-.525c.188-.098.393-.172.616-.222.223-.052.433-.078.631-.078.44 0 .771.096.994.288.225.191.338.492.338.903V41.2h-.526zm-1.093-.5c.266 0 .48-.074.64-.222.163-.15.244-.36.244-.628v-.3l-.444.019c-.346.012-.598.07-.756.175-.156.102-.234.26-.234.472 0 .154.046.274.137.359.092.083.23.125.413.125zM57.731 41.2l-.103-.453h-.038a1.04 1.04 0 0 1-.437.378 1.447 1.447 0 0 1-.644.138c-.419 0-.731-.105-.937-.313-.207-.208-.31-.524-.31-.947v-2.26h.74v2.132c0 .265.055.464.163.597.109.131.279.197.51.197.308 0 .534-.092.678-.275.146-.186.219-.495.219-.928v-1.722h.737V41.2h-.578zM60.9 40.669c.179 0 .358-.028.537-.085v.553a1.432 1.432 0 0 1-.316.088c-.127.025-.259.038-.397.038-.695 0-1.043-.367-1.043-1.1V38.3h-.472v-.325l.506-.269.25-.731h.453v.769h.985v.556h-.985v1.85c0 .177.044.308.132.394.09.083.206.125.35.125zM65.452 39.466c0 .564-.144 1.005-.434 1.322-.29.316-.693.475-1.21.475-.322 0-.608-.073-.856-.22a1.444 1.444 0 0 1-.572-.627 2.14 2.14 0 0 1-.2-.95c0-.56.144-.998.432-1.313.287-.314.692-.472 1.215-.472.5 0 .896.162 1.188.485.291.32.437.754.437 1.3zm-2.515 0c0 .798.294 1.197.884 1.197.583 0 .875-.4.875-1.197 0-.79-.294-1.185-.881-1.185-.308 0-.532.102-.672.306-.138.205-.206.497-.206.879zM69.468 41.2h-.738v-2.131c0-.265-.05-.462-.15-.59-.1-.132-.256-.198-.468-.198-.284 0-.492.093-.625.278-.132.184-.197.49-.197.92V41.2h-.735v-3.456h.575l.103.453h.038a.959.959 0 0 1 .415-.381c.184-.09.385-.135.604-.135.53 0 .883.181 1.056.544h.05c.102-.17.246-.304.431-.4.186-.096.398-.144.638-.144.412 0 .712.104.9.313.19.208.284.526.284.953V41.2h-.734v-2.131c0-.265-.051-.462-.154-.59-.1-.132-.256-.198-.468-.198-.286 0-.495.09-.628.269-.132.177-.197.45-.197.819V41.2zM75.093 41.2l-.147-.481h-.025c-.167.21-.335.354-.504.431a1.61 1.61 0 0 1-.65.113c-.34 0-.605-.092-.796-.276-.19-.183-.285-.442-.285-.778 0-.356.132-.625.397-.806.265-.181.668-.28 1.21-.297l.596-.019v-.184c0-.22-.052-.385-.156-.494-.102-.11-.261-.165-.478-.165-.177 0-.347.026-.51.078a3.835 3.835 0 0 0-.468.184l-.238-.525c.188-.098.393-.172.616-.222.223-.052.433-.078.631-.078.44 0 .771.096.994.288.225.191.338.492.338.903V41.2h-.525zm-1.094-.5c.266 0 .48-.074.64-.222.163-.15.244-.36.244-.628v-.3l-.444.019c-.345.012-.598.07-.756.175-.156.102-.234.26-.234.472 0 .154.046.274.137.359.092.083.23.125.413.125zM78.186 40.669c.18 0 .358-.028.537-.085v.553a1.432 1.432 0 0 1-.315.088c-.127.025-.26.038-.397.038-.696 0-1.044-.367-1.044-1.1V38.3h-.472v-.325l.507-.269.25-.731h.453v.769h.984v.556h-.984v1.85c0 .177.044.308.131.394.09.083.206.125.35.125zM81.183 41.263c-.538 0-.959-.157-1.263-.47-.302-.314-.453-.746-.453-1.296 0-.565.14-1.008.422-1.331.281-.323.668-.485 1.16-.485.455 0 .816.139 1.08.416.265.277.397.658.397 1.144v.397h-2.303c.01.335.101.593.272.775.17.179.412.268.722.268.204 0 .394-.018.569-.056.177-.04.366-.104.569-.194v.597c-.18.086-.36.146-.544.181a3.335 3.335 0 0 1-.628.053zm-.135-3.026a.743.743 0 0 0-.562.222c-.14.148-.223.364-.25.647h1.569c-.005-.285-.073-.5-.207-.647-.133-.148-.316-.222-.55-.222zM84.782 41.263c-.43 0-.767-.157-1.009-.47-.242-.312-.362-.75-.362-1.315 0-.567.121-1.007.365-1.322.246-.316.586-.475 1.019-.475.454 0 .8.168 1.037.503h.038a4.39 4.39 0 0 1-.053-.587v-1.26h.737V41.2h-.575l-.128-.453h-.034c-.236.344-.58.516-1.035.516zm.197-.594c.302 0 .522-.085.66-.253.137-.171.208-.447.212-.828v-.104c0-.435-.07-.744-.212-.928-.142-.183-.364-.275-.666-.275a.675.675 0 0 0-.597.316c-.14.208-.21.506-.21.894 0 .383.068.676.204.878.135.2.338.3.61.3zM92.1 40.216c0 .337-.122.596-.368.778-.246.179-.598.269-1.056.269-.46 0-.83-.07-1.11-.21v-.634c.406.187.785.281 1.135.281.452 0 .678-.136.678-.41a.324.324 0 0 0-.075-.218.889.889 0 0 0-.247-.181 4.237 4.237 0 0 0-.478-.213c-.398-.154-.668-.308-.81-.462-.14-.154-.209-.355-.209-.6 0-.296.119-.525.356-.688.24-.164.565-.247.975-.247.406 0 .79.083 1.153.247l-.237.553c-.373-.154-.687-.231-.94-.231-.388 0-.582.11-.582.331 0 .109.05.2.15.275.102.075.323.178.662.31.286.11.493.211.622.303.13.091.225.198.288.319a.909.909 0 0 1 .094.428zM96.194 41.2h-.737v-2.125c0-.267-.055-.466-.163-.597-.106-.131-.276-.197-.51-.197-.308 0-.535.093-.68.278-.144.184-.216.492-.216.925V41.2h-.735v-4.863h.735v1.235c0 .198-.013.41-.038.634h.047c.1-.166.239-.296.416-.387.179-.092.387-.138.625-.138.837 0 1.256.422 1.256 1.266V41.2zM100.538 39.466c0 .564-.145 1.005-.435 1.322-.29.316-.692.475-1.21.475-.322 0-.608-.073-.855-.22a1.445 1.445 0 0 1-.572-.627 2.14 2.14 0 0 1-.2-.95c0-.56.143-.998.431-1.313.287-.314.693-.472 1.216-.472.5 0 .895.162 1.187.485.292.32.438.754.438 1.3zm-2.516 0c0 .798.295 1.197.884 1.197.584 0 .875-.4.875-1.197 0-.79-.293-1.185-.88-1.185-.31 0-.533.102-.673.306-.137.205-.206.497-.206.879zM103.394 41.263c-.438 0-.777-.158-1.019-.472h-.044c.029.291.044.468.044.53v1.416h-.735v-4.993h.594c.017.064.051.218.103.462h.038c.229-.35.573-.525 1.031-.525.431 0 .767.157 1.006.469.242.313.363.751.363 1.316 0 .564-.123 1.005-.369 1.322-.244.316-.581.475-1.012.475zm-.179-2.982c-.291 0-.505.086-.64.257-.133.17-.2.443-.2.818v.11c0 .42.067.726.2.915.133.188.351.282.653.282.254 0 .45-.105.587-.313.138-.208.207-.505.207-.89 0-.388-.069-.68-.207-.879-.135-.2-.335-.3-.6-.3zM107.637 41.263c-.437 0-.777-.158-1.019-.472h-.043c.029.291.043.468.043.53v1.416h-.734v-4.993h.594c.016.064.051.218.103.462h.037c.23-.35.573-.525 1.032-.525.431 0 .766.157 1.006.469.242.313.362.751.362 1.316 0 .564-.123 1.005-.368 1.322-.244.316-.582.475-1.013.475zm-.178-2.982c-.292 0-.505.086-.641.257-.133.17-.2.443-.2.818v.11c0 .42.067.726.2.915.134.188.351.282.653.282.255 0 .45-.105.588-.313.137-.208.206-.505.206-.89 0-.388-.069-.68-.206-.879-.135-.2-.335-.3-.6-.3zM110.862 41.2h-.735v-3.456h.735V41.2zm-.778-4.372c0-.131.035-.232.106-.303a.426.426 0 0 1 .309-.106c.13 0 .23.035.3.106.073.07.11.172.11.303a.401.401 0 0 1-.11.297c-.07.07-.17.106-.3.106a.425.425 0 0 1-.309-.106.407.407 0 0 1-.106-.297zM115.212 41.2h-.738v-2.125c0-.267-.054-.466-.162-.597-.107-.131-.276-.197-.51-.197-.31 0-.537.092-.681.275-.144.184-.216.49-.216.922V41.2h-.734v-3.456h.575l.103.453h.038c.104-.165.252-.292.443-.381.192-.09.405-.135.638-.135.829 0 1.244.422 1.244 1.266V41.2zM119.408 37.744v.403l-.59.11a1.073 1.073 0 0 1 .187.606c0 .356-.123.636-.369.84-.245.204-.584.306-1.015.306-.111 0-.211-.008-.3-.025-.159.098-.238.213-.238.344 0 .08.037.139.11.178.075.04.211.06.409.06h.603c.381 0 .671.08.869.243.198.163.297.397.297.704 0 .391-.162.693-.485.906-.323.212-.789.319-1.4.319-.47 0-.83-.084-1.078-.25a.808.808 0 0 1-.372-.713c0-.212.067-.392.2-.538.136-.143.324-.243.566-.3a.567.567 0 0 1-.244-.2.526.526 0 0 1 .016-.621c.073-.09.181-.178.325-.266a.98.98 0 0 1-.438-.375 1.126 1.126 0 0 1-.165-.613c0-.375.117-.665.353-.871.237-.207.575-.31 1.012-.31.098 0 .2.008.307.022.108.013.189.026.243.04h1.197zm-2.715 3.993c0 .159.07.28.212.366.144.086.345.128.603.128.4 0 .698-.057.894-.172.196-.114.294-.266.294-.456 0-.15-.054-.257-.163-.322-.106-.062-.305-.093-.597-.093h-.556c-.21 0-.378.048-.503.146a.492.492 0 0 0-.184.403zm.315-2.875c0 .217.055.384.166.5.112.117.273.175.481.175.425 0 .638-.227.638-.68 0-.226-.054-.399-.16-.52-.104-.122-.263-.184-.478-.184-.212 0-.374.06-.484.181-.109.121-.163.297-.163.528zM123.62 41.263c-.523 0-.921-.153-1.194-.457-.27-.306-.406-.744-.406-1.315 0-.582.142-1.029.425-1.341.286-.313.697-.469 1.235-.469.364 0 .692.068.984.203l-.222.591c-.31-.12-.567-.181-.769-.181-.598 0-.897.397-.897 1.19 0 .388.074.68.222.875.15.194.369.291.657.291.327 0 .636-.081.928-.244v.64a1.456 1.456 0 0 1-.422.166c-.148.034-.328.05-.541.05zM127.814 41.2l-.147-.481h-.025c-.167.21-.335.354-.503.431a1.613 1.613 0 0 1-.65.113c-.34 0-.605-.092-.797-.276-.19-.183-.285-.442-.285-.778 0-.356.133-.625.397-.806.265-.181.668-.28 1.21-.297l.597-.019v-.184c0-.22-.052-.385-.157-.494-.102-.11-.261-.165-.478-.165-.177 0-.347.026-.509.078a3.808 3.808 0 0 0-.469.184l-.237-.525c.187-.098.392-.172.615-.222.223-.052.434-.078.631-.078.44 0 .771.096.994.288.225.191.338.492.338.903V41.2h-.525zm-1.094-.5c.267 0 .48-.074.641-.222.162-.15.243-.36.243-.628v-.3l-.443.019c-.346.012-.598.07-.757.175-.156.102-.234.26-.234.472a.47.47 0 0 0 .137.359c.092.083.23.125.413.125zM131.373 37.681c.148 0 .27.01.365.032l-.071.684a1.396 1.396 0 0 0-.325-.038c-.294 0-.533.096-.716.288-.181.192-.272.44-.272.747V41.2h-.734v-3.456h.575l.097.61h.037c.115-.207.264-.37.447-.492.185-.12.384-.18.597-.18zM133.926 40.669c.179 0 .358-.028.537-.085v.553a1.422 1.422 0 0 1-.315.088c-.127.025-.26.038-.397.038-.696 0-1.044-.367-1.044-1.1V38.3h-.472v-.325l.506-.269.25-.731h.453v.769h.985v.556h-.985v1.85c0 .177.044.308.132.394a.492.492 0 0 0 .35.125zM140.244 41.2h-.738v-2.131c0-.265-.05-.462-.15-.59-.1-.132-.256-.198-.468-.198-.284 0-.492.093-.625.278-.132.184-.197.49-.197.92V41.2h-.735v-3.456h.575l.104.453h.037a.957.957 0 0 1 .416-.381c.183-.09.384-.135.603-.135.531 0 .883.181 1.056.544h.05c.102-.17.246-.304.431-.4.186-.096.398-.144.638-.144.412 0 .712.104.9.313.189.208.284.526.284.953V41.2h-.734v-2.131c0-.265-.051-.462-.153-.59-.1-.132-.257-.198-.469-.198-.285 0-.495.09-.628.269-.131.177-.197.45-.197.819V41.2zM144.441 41.2h-.735v-3.456h.735V41.2zm-.779-4.372c0-.131.036-.232.107-.303a.426.426 0 0 1 .309-.106c.129 0 .229.035.3.106.073.07.109.172.109.303a.4.4 0 0 1-.109.297.406.406 0 0 1-.3.106.425.425 0 0 1-.309-.106.408.408 0 0 1-.107-.297zM148.668 37.744v.403l-.59.11a1.045 1.045 0 0 1 .187.606c0 .356-.123.636-.368.84-.246.204-.585.306-1.016.306-.11 0-.21-.008-.3-.025-.158.098-.238.213-.238.344 0 .08.037.139.11.178.075.04.211.06.409.06h.603c.382 0 .671.08.869.243.198.163.297.397.297.704 0 .391-.161.693-.484.906-.323.212-.79.319-1.4.319-.471 0-.831-.084-1.079-.25a.81.81 0 0 1-.371-.713c0-.212.066-.392.2-.538.135-.143.324-.243.565-.3a.567.567 0 0 1-.244-.2.524.524 0 0 1-.093-.293c0-.13.036-.239.109-.328.073-.09.181-.178.325-.266a.972.972 0 0 1-.437-.375 1.118 1.118 0 0 1-.166-.613c0-.375.118-.665.353-.871.238-.207.575-.31 1.013-.31.098 0 .2.008.306.022.108.013.189.026.244.04h1.196zm-2.715 3.993c0 .159.071.28.212.366.144.086.345.128.603.128.4 0 .698-.057.894-.172.196-.114.294-.266.294-.456 0-.15-.054-.257-.163-.322-.106-.062-.305-.093-.596-.093h-.557c-.21 0-.378.048-.503.146a.492.492 0 0 0-.184.403zm.315-2.875c0 .217.056.384.166.5.113.117.273.175.481.175.425 0 .638-.227.638-.68 0-.226-.053-.399-.16-.52-.104-.122-.263-.184-.478-.184-.212 0-.374.06-.484.181-.108.121-.163.297-.163.528zM151.321 37.681c.148 0 .27.01.366.032l-.072.684a1.384 1.384 0 0 0-.325-.038.947.947 0 0 0-.716.288c-.181.192-.271.44-.271.747V41.2h-.735v-3.456h.575l.097.61h.038c.114-.207.263-.37.446-.492.186-.12.385-.18.597-.18zM154.749 41.2l-.147-.481h-.025c-.166.21-.334.354-.503.431a1.61 1.61 0 0 1-.65.113c-.339 0-.605-.092-.797-.276-.189-.183-.284-.442-.284-.778 0-.356.132-.625.397-.806.264-.181.668-.28 1.209-.297l.597-.019v-.184c0-.22-.052-.385-.156-.494-.102-.11-.262-.165-.478-.165-.177 0-.347.026-.51.078a3.857 3.857 0 0 0-.468.184l-.238-.525a2.52 2.52 0 0 1 .616-.222c.223-.052.433-.078.631-.078.44 0 .771.096.994.288.225.191.337.492.337.903V41.2h-.525zm-1.094-.5c.267 0 .481-.074.641-.222.163-.15.244-.36.244-.628v-.3l-.444.019c-.346.012-.598.07-.756.175-.156.102-.235.26-.235.472 0 .154.046.274.138.359.092.083.229.125.412.125zM157.843 40.669c.179 0 .358-.028.537-.085v.553a1.422 1.422 0 0 1-.315.088c-.127.025-.26.038-.397.038-.696 0-1.044-.367-1.044-1.1V38.3h-.472v-.325l.506-.269.25-.731h.453v.769h.985v.556h-.985v1.85c0 .177.044.308.132.394a.492.492 0 0 0 .35.125zM160.064 41.2h-.734v-3.456h.734V41.2zm-.778-4.372c0-.131.036-.232.106-.303a.428.428 0 0 1 .31-.106c.129 0 .229.035.3.106.073.07.109.172.109.303a.4.4 0 0 1-.109.297.406.406 0 0 1-.3.106.428.428 0 0 1-.31-.106.411.411 0 0 1-.106-.297zM164.439 39.466c0 .564-.145 1.005-.434 1.322-.29.316-.693.475-1.21.475-.323 0-.608-.073-.856-.22a1.448 1.448 0 0 1-.572-.627c-.133-.273-.2-.59-.2-.95 0-.56.144-.998.431-1.313.288-.314.693-.472 1.216-.472.5 0 .896.162 1.188.485.291.32.437.754.437 1.3zm-2.516 0c0 .798.295 1.197.885 1.197.583 0 .875-.4.875-1.197 0-.79-.294-1.185-.881-1.185-.309 0-.533.102-.672.306-.138.205-.207.497-.207.879zM168.583 41.2h-.738v-2.125c0-.267-.054-.466-.162-.597-.107-.131-.276-.197-.51-.197-.31 0-.537.092-.681.275-.144.184-.216.49-.216.922V41.2h-.734v-3.456h.575l.103.453h.038c.104-.165.252-.292.443-.381.192-.09.405-.135.638-.135.829 0 1.244.422 1.244 1.266V41.2z" fill="#259FDA"/>
    <defs>
        <linearGradient id="paint0_linear" x1="16.253" y1="28.67" x2="66.078" y2="52.993" gradientUnits="userSpaceOnUse"><stop stop-color="#F58220"/><stop offset=".17" stop-color="#F89B4E"/><stop offset=".397" stop-color="#FCBC85"/><stop offset=".602" stop-color="#FED7B5"/><stop offset=".776" stop-color="#FFEBD9"/><stop offset=".915" stop-color="#FFF8F2"/><stop offset="1" stop-color="#fff"/></linearGradient><linearGradient id="paint1_linear" x1="18.022" y1="28.503" x2="31.422" y2="28.748" gradientUnits="userSpaceOnUse"><stop stop-color="#fff"/><stop offset=".3" stop-color="#fff"/><stop offset="1" stop-color="#F58220"/></linearGradient><linearGradient id="paint2_linear" x1="-14.711" y1="8.952" x2="27.124" y2="38.492" gradientUnits="userSpaceOnUse"><stop stop-color="#fff"/><stop offset="1" stop-color="#F58220"/></linearGradient><linearGradient id="paint3_linear" x1="20.561" y1="28.29" x2="9.679" y2="26.486" gradientUnits="userSpaceOnUse"><stop stop-color="#F58220"/><stop offset="1" stop-color="#ED4E28"/></linearGradient><linearGradient id="paint4_linear" x1="9.179" y1="27.792" x2="18.169" y2="27.792" gradientUnits="userSpaceOnUse"><stop stop-color="#006FB9"/><stop offset="1" stop-color="#fff"/></linearGradient><linearGradient id="paint5_linear" x1="21.375" y1="13.275" x2="7.447" y2="22.743" gradientUnits="userSpaceOnUse"><stop stop-color="#00AEEF"/><stop offset=".17" stop-color="#00BBF2"/><stop offset=".397" stop-color="#6CCFF6"/><stop offset=".602" stop-color="#AFE2FA"/><stop offset=".776" stop-color="#D9F1FD"/><stop offset=".915" stop-color="#F3FAFE"/><stop offset="1" stop-color="#fff"/></linearGradient><linearGradient id="paint6_linear" x1="16.931" y1="15.752" x2="17.17" y2="30.095" gradientUnits="userSpaceOnUse"><stop stop-color="#0095DA"/><stop offset=".26" stop-color="#00AEEF"/><stop offset="1" stop-color="#8ED8F8"/></linearGradient><linearGradient id="paint7_linear" x1="20.427" y1="7.012" x2="17.225" y2="34.31" gradientUnits="userSpaceOnUse"><stop stop-color="#00AEEF"/><stop offset="1" stop-color="#fff"/></linearGradient><linearGradient id="paint8_linear" x1="17.724" y1="9.708" x2="17.472" y2="17.258" gradientUnits="userSpaceOnUse"><stop stop-color="#00AEEF"/><stop offset="1" stop-color="#0095DA"/></linearGradient><linearGradient id="paint9_linear" x1="33.326" y1="20.245" x2="24.861" y2="6.063" gradientUnits="userSpaceOnUse"><stop stop-color="#A6CE39"/><stop offset=".17" stop-color="#B9D765"/><stop offset=".397" stop-color="#D0E39A"/><stop offset=".602" stop-color="#E3EEC4"/><stop offset=".776" stop-color="#F0F6E2"/><stop offset=".915" stop-color="#FAFCF5"/><stop offset="1" stop-color="#fff"/></linearGradient><linearGradient id="paint10_linear" x1="30.898" y1="15.867" x2="15.882" y2="16.141" gradientUnits="userSpaceOnUse"><stop stop-color="#85B642"/><stop offset=".26" stop-color="#A6CE39"/><stop offset="1" stop-color="#D2E288"/></linearGradient><linearGradient id="paint11_linear" x1="4.879" y1="14.571" x2="20.68" y2="9.828" gradientUnits="userSpaceOnUse"><stop stop-color="#A6CE39"/><stop offset=".17" stop-color="#B9D765"/><stop offset=".397" stop-color="#D0E39A"/><stop offset=".602" stop-color="#E3EEC4"/><stop offset=".776" stop-color="#F0F6E2"/><stop offset=".915" stop-color="#FAFCF5"/><stop offset="1" stop-color="#fff"/></linearGradient><linearGradient id="paint12_linear" x1="39.999" y1="19.241" x2="11.603" y2="15.063" gradientUnits="userSpaceOnUse"><stop stop-color="#A6CE39"/><stop offset="1" stop-color="#fff"/></linearGradient><linearGradient id="paint13_linear" x1="27.004" y1="30.155" x2="39.752" y2="22.758" gradientUnits="userSpaceOnUse"><stop stop-color="#ED1C24"/><stop offset=".17" stop-color="#F16044"/><stop offset=".397" stop-color="#F69679"/><stop offset=".602" stop-color="#FBC1AB"/><stop offset=".776" stop-color="#FDE1D4"/><stop offset=".915" stop-color="#FFF5F0"/><stop offset="1" stop-color="#fff"/></linearGradient><linearGradient id="paint14_linear" x1="30.195" y1="28.244" x2="30.653" y2="14.489" gradientUnits="userSpaceOnUse"><stop stop-color="#DB282E"/><stop offset=".15" stop-color="#ED1C24"/><stop offset="1" stop-color="#ED7466"/></linearGradient><linearGradient id="paint15_linear" x1="27.222" y1="37.513" x2="31.327" y2="10.379" gradientUnits="userSpaceOnUse"><stop stop-color="#ED1C24"/><stop offset="1" stop-color="#fff"/></linearGradient><linearGradient id="paint16_linear" x1="49.087" y1="11.013" x2="25.895" y2="25.031" gradientUnits="userSpaceOnUse"><stop stop-color="#ED1C24"/><stop offset="1" stop-color="#fff"/></linearGradient>
    </defs>
</svg>
